<svg width="16" height="16" viewBox="0 0 16 16" fill="none" xmlns="http://www.w3.org/2000/svg">
<path d="M8.7455 11.3485L5.94617 9.82181C5.5807 10.2125 5.10616 10.4843 4.58422 10.6017C4.06228 10.7192 3.51707 10.677 3.01945 10.4805C2.52183 10.284 2.09481 9.94245 1.79388 9.50011C1.49295 9.05777 1.33203 8.53514 1.33203 8.00014C1.33203 7.46515 1.49295 6.94252 1.79388 6.50018C2.09481 6.05784 2.52183 5.71625 3.01945 5.51979C3.51707 5.32333 4.06228 5.28109 4.58422 5.39855C5.10616 5.51602 5.5807 5.78777 5.94617 6.17848L8.74617 4.65181C8.58744 4.02245 8.6637 3.35681 8.96065 2.77966C9.2576 2.2025 9.75486 1.75347 10.3592 1.51672C10.9636 1.27998 11.6335 1.27178 12.2435 1.49366C12.8534 1.71554 13.3615 2.15228 13.6725 2.72199C13.9835 3.2917 14.076 3.95528 13.9327 4.58833C13.7895 5.22139 13.4202 5.78045 12.8942 6.16073C12.3682 6.541 11.7216 6.71638 11.0755 6.65399C10.4295 6.5916 9.82834 6.29572 9.38484 5.82181L6.58484 7.34848C6.6923 7.77605 6.6923 8.22357 6.58484 8.65115L9.38484 10.1778C9.82857 9.70414 10.4298 9.40856 11.0759 9.34648C11.722 9.28441 12.3685 9.46009 12.8943 9.84061C13.4201 10.2211 13.7891 10.7803 13.9321 11.4134C14.0751 12.0466 13.9823 12.7101 13.671 13.2796C13.3598 13.8492 12.8515 14.2857 12.2415 14.5073C11.6314 14.7289 10.9615 14.7205 10.3573 14.4835C9.75304 14.2465 9.25598 13.7973 8.95926 13.22C8.66254 12.6428 8.58654 11.9771 8.7455 11.3478V11.3485ZM3.99884 9.33315C4.35246 9.33315 4.6916 9.19267 4.94164 8.94262C5.19169 8.69257 5.33217 8.35343 5.33217 7.99981C5.33217 7.64619 5.19169 7.30705 4.94164 7.057C4.6916 6.80695 4.35246 6.66648 3.99884 6.66648C3.64521 6.66648 3.30607 6.80695 3.05603 7.057C2.80598 7.30705 2.6655 7.64619 2.6655 7.99981C2.6655 8.35343 2.80598 8.69257 3.05603 8.94262C3.30607 9.19267 3.64521 9.33315 3.99884 9.33315ZM11.3322 5.33315C11.6858 5.33315 12.0249 5.19267 12.275 4.94262C12.525 4.69257 12.6655 4.35343 12.6655 3.99981C12.6655 3.64619 12.525 3.30705 12.275 3.057C12.0249 2.80695 11.6858 2.66648 11.3322 2.66648C10.9785 2.66648 10.6394 2.80695 10.3894 3.057C10.1393 3.30705 9.99884 3.64619 9.99884 3.99981C9.99884 4.35343 10.1393 4.69257 10.3894 4.94262C10.6394 5.19267 10.9785 5.33315 11.3322 5.33315ZM11.3322 13.3331C11.6858 13.3331 12.0249 13.1927 12.275 12.9426C12.525 12.6926 12.6655 12.3534 12.6655 11.9998C12.6655 11.6462 12.525 11.3071 12.275 11.057C12.0249 10.807 11.6858 10.6665 11.3322 10.6665C10.9785 10.6665 10.6394 10.807 10.3894 11.057C10.1393 11.3071 9.99884 11.6462 9.99884 11.9998C9.99884 12.3534 10.1393 12.6926 10.3894 12.9426C10.6394 13.1927 10.9785 13.3331 11.3322 13.3331Z" fill="#3348FB"/>
</svg>
